<svg width="50" height="50" viewBox="0 0 50 50" fill="none" xmlns="http://www.w3.org/2000/svg">
                                        <path d="M40.3863 5.55968C40.2741 24.7469 24.7478 40.2733 5.56055 40.3855C11.4832 47.8744 21.1799 51.2965 30.491 49.1846C39.8024 47.0724 47.0734 39.8014 49.1856 30.49C51.2975 21.179 47.8753 11.4823 40.3865 5.55957L40.3863 5.55968Z" fill="#83D8F4"/>
                                        <path d="M40.3861 5.55974C30.5203 -2.25734 16.3618 -1.43985 7.46123 7.46075C-1.43937 16.3613 -2.25685 30.5198 5.56022 40.3856C24.7474 40.2734 40.2738 24.747 40.3861 5.55974Z" fill="#91DCF5"/>
                                        <path d="M36.9714 10.4633C35.0817 11.3184 34.0386 10.3096 32.6959 11.3184C31.037 12.5668 30.3702 15.7993 31.8408 18.1592C32.8817 19.8218 34.7481 20.239 36.8554 20.699C38.9881 16.3238 40.1823 11.551 40.3613 6.68701C39.7398 8.32323 38.5313 9.66943 36.9714 10.4633Z" fill="#00BB77"/>
                                        <path d="M40.6562 5.77197C40.579 6.08375 40.4792 6.38951 40.3577 6.68683C40.1788 11.5508 38.9847 16.3236 36.8521 20.6988L36.9716 20.7243C39.9047 21.3656 41.0421 20.006 43.8124 20.7243C45.0482 21.0788 46.2078 21.6586 47.2329 22.4345C48.4208 23.4145 49.2986 24.7183 49.7597 26.1877C49.7785 25.7935 49.7982 25.3994 49.7982 24.9998C49.8014 21.3165 48.9824 17.6789 47.4008 14.3525C45.8192 11.026 43.515 8.09454 40.6562 5.77197ZM24.1449 35.2611C25.8381 37.1338 26.2827 40.2977 25.0001 42.102C23.957 43.5729 22.529 43.0681 21.5796 44.6673C21.2261 45.3244 21.041 46.0589 21.041 46.8051C21.041 47.5512 21.2261 48.2857 21.5796 48.9428C21.7115 49.1839 21.869 49.4101 22.0493 49.6175C23.0285 49.7356 24.0138 49.7959 25.0001 49.7979C34.0429 49.8004 42.3694 44.8785 46.7276 36.955C45.1724 35.9145 42.7427 34.5379 40.392 34.406C37.9827 34.1705 35.5661 34.7747 33.5511 36.1162C31.0288 37.9632 30.5327 40.58 29.2756 40.3918C28.3863 40.2635 27.8989 38.8268 27.5654 37.8264C26.8017 35.5483 27.2159 34.0068 27.2088 32.7291C26.1647 33.5646 25.0736 34.3394 23.9407 35.0498C24.0108 35.1182 24.0789 35.1887 24.1448 35.2611H24.1449Z" fill="#00A468"/>
                                        <path d="M26.7103 30.9851C25.8296 29.7537 24.1879 29.5228 22.4347 29.2748C18.7579 28.7617 17.3128 30.3437 15.5939 29.2748C14.9095 28.8191 14.3795 28.1663 14.0742 27.4029C13.7688 26.6395 13.7024 25.8013 13.8836 24.9993C14.6021 22.8532 17.7404 23.58 21.5796 20.7238C22.8196 19.8089 25.7695 17.6114 25.8552 14.738C25.9407 11.9247 23.1958 11.1209 22.4347 7.89715C22.104 6.50835 22.7212 3.31474 24.2852 0.227051C15.0798 0.487004 6.77759 5.82865 2.7247 14.0974V14.1054C2.17613 17.1434 2.19055 20.2563 2.76724 23.2891C3.28907 26.7354 3.76761 29.8649 6.18767 32.6953C7.24822 33.9437 8.88116 35.8422 11.3183 36.1157C14.0205 36.415 17.5863 34.6877 18.1592 34.4055C18.9254 33.9023 19.8096 33.6076 20.7245 33.5504C21.9468 33.6282 23.0951 34.1633 23.9408 35.0493C25.0736 34.3389 26.1647 33.5641 27.2088 32.7287C27.2377 32.1086 27.0626 31.4962 26.7103 30.9851Z" fill="#00BB77"/>
                                        <path d="M18.1593 7.04252C18.1593 10.822 11.3184 19.8691 11.3184 19.8691C11.3184 19.8691 7.05163 14.2253 5.25569 9.99275C4.81368 9.06681 4.54971 8.06601 4.47754 7.04252C4.47754 3.26465 7.54053 0.20166 11.3184 0.20166C15.0966 0.20166 18.1593 3.26465 18.1593 7.04252Z" fill="#FF5023"/>
                                        <path d="M13.8836 6.18739C13.8836 7.60409 12.735 8.75272 11.3183 8.75272C9.90155 8.75272 8.75293 7.60409 8.75293 6.18739C8.75293 4.77069 9.90155 3.62207 11.3183 3.62207C12.735 3.62207 13.8836 4.77069 13.8836 6.18739Z" fill="#F1F2F2"/>
                                        <path d="M43.8126 30.1299C43.6246 31.7336 43.1032 33.2803 42.2819 34.6705C40.7128 37.5563 38.9381 40.3254 36.9717 42.9565C36.9717 42.9565 34.7312 39.9895 32.8072 36.7399C32.0982 35.5611 31.4642 34.3388 30.9091 33.0801C30.4671 32.1542 30.2031 31.1534 30.1309 30.1299C30.1309 26.3521 33.1939 23.2891 36.9717 23.2891C40.7499 23.2891 43.8126 26.3521 43.8126 30.1299Z" fill="#FFCD00"/>
                                        <path d="M39.5369 29.2753C39.5369 30.692 38.3883 31.8406 36.9716 31.8406C35.5549 31.8406 34.4062 30.692 34.4062 29.2753C34.4062 27.8586 35.5549 26.71 36.9716 26.71C38.3883 26.71 39.5369 27.8586 39.5369 29.2753Z" fill="#F1F2F2"/>
                                    </svg>