<svg width="86" height="60" viewBox="0 0 86 60" fill="none" xmlns="http://www.w3.org/2000/svg">
                                <g filter="url(#filter0_d_66_359)">
                                  <path fill-rule="evenodd" clip-rule="evenodd" d="M4.78406 7.79078C4.57611 7.79078 4.37669 7.70817 4.22965 7.56113C4.08261 7.41409 4 7.21466 4 7.00672C4 6.79877 4.08261 6.59934 4.22965 6.4523C4.37669 6.30526 4.57611 6.22266 4.78406 6.22266H11.8406C12.0486 6.22266 12.248 6.30526 12.395 6.4523C12.5421 6.59934 12.6247 6.79877 12.6247 7.00672C12.6247 7.21466 12.5421 7.41409 12.395 7.56113C12.248 7.70817 12.0486 7.79078 11.8406 7.79078H4.78406ZM6.48924 21.0808C6.28129 21.0808 6.08186 20.9982 5.93482 20.8511C5.78778 20.7041 5.70518 20.5046 5.70518 20.2967C5.70518 20.0888 5.78778 19.8893 5.93482 19.7423C6.08186 19.5952 6.28129 19.5126 6.48924 19.5126H15.898C16.1059 19.5126 16.3053 19.5952 16.4524 19.7423C16.5994 19.8893 16.682 20.0888 16.682 20.2967C16.682 20.5046 16.5994 20.7041 16.4524 20.8511C16.3053 20.9982 16.1059 21.0808 15.898 21.0808H6.48924ZM5.54617 16.6703C5.33822 16.6703 5.13879 16.5877 4.99175 16.4406C4.84471 16.2936 4.76211 16.0941 4.76211 15.8862C4.76211 15.6783 4.84471 15.4788 4.99175 15.3318C5.13879 15.1847 5.33822 15.1021 5.54617 15.1021H12.3112C12.5191 15.1021 12.7186 15.1847 12.8656 15.3318C13.0127 15.4788 13.0953 15.6783 13.0953 15.8862C13.0953 16.0941 13.0127 16.2936 12.8656 16.4406C12.7186 16.5877 12.5191 16.6703 12.3112 16.6703H5.54617ZM7.95966 11.5543C7.75172 11.5543 7.55229 11.4717 7.40525 11.3246C7.25821 11.1776 7.1756 10.9782 7.1756 10.7702C7.1756 10.5623 7.25821 10.3628 7.40525 10.2158C7.55229 10.0688 7.75172 9.98615 7.95966 9.98615H13.4285C13.6364 9.98615 13.8359 10.0688 13.9829 10.2158C14.1299 10.3628 14.2125 10.5623 14.2125 10.7702C14.2125 10.9782 14.1299 11.1776 13.9829 11.3246C13.8359 11.4717 13.6364 11.5543 13.4285 11.5543H7.95966Z" fill="#FDC72E"/>
                                  <path fill-rule="evenodd" clip-rule="evenodd" d="M51.6055 17.7269H67.3964L64.8862 15.2167C64.5415 14.872 64.1217 14.6982 63.6345 14.6982H51.6055V17.7269Z" fill="#E37500"/>
                                  <path d="M48.3516 3H52.0577V44.8328H48.3516V3Z" fill="#C45B00"/>
                                  <path fill-rule="evenodd" clip-rule="evenodd" d="M52.0577 48.4223H8.51035C6.45815 48.4223 4.78418 46.7484 4.78418 44.696V38.3896H52.0577V48.4223Z" fill="#E37500"/>
                                  <path fill-rule="evenodd" clip-rule="evenodd" d="M78.6989 48.4221H52.0576V17.7266H68.1636C69.3408 17.7266 70.3541 18.1719 71.1501 19.0394L77.6319 26.1028C78.3454 26.8803 78.6989 27.7881 78.6989 28.8434V48.4219V48.4221Z" fill="#F9AC00"/>
                                  <path fill-rule="evenodd" clip-rule="evenodd" d="M76.0223 48.4221H52.0576V17.7266H65.487C66.6642 17.7266 67.6775 18.1719 68.4735 19.0394L74.9553 26.1028C75.6688 26.8803 76.0221 27.7881 76.0221 28.8434V48.4221H76.0223Z" fill="#FDC72E"/>
                                  <path fill-rule="evenodd" clip-rule="evenodd" d="M59.8535 29.4713V20.8887H72.8471L77.6319 26.1028C78.3454 26.8803 78.6989 27.7881 78.6989 28.8434V29.4713H59.8535Z" fill="#E9E9FF"/>
                                  <path fill-rule="evenodd" clip-rule="evenodd" d="M59.8537 29.4713V20.8887H70.1705L74.9553 26.1028C75.6688 26.8803 76.0221 27.7881 76.0221 28.8434V29.4713H59.8535H59.8537Z" fill="#F0F0FF"/>
                                  <path fill-rule="evenodd" clip-rule="evenodd" d="M78.699 44.8326H4.78418V48.4222H78.9718C80.4316 48.4222 81.6221 47.2317 81.6221 45.7719V40.9395H78.699V44.8326Z" fill="#7986BF"/>
                                  <path fill-rule="evenodd" clip-rule="evenodd" d="M62.5918 35.1733C62.8083 35.1763 63.0149 35.2644 63.1669 35.4186C63.3189 35.5727 63.4041 35.7805 63.4041 35.997C63.4041 36.2135 63.3189 36.4213 63.1669 36.5754C63.0149 36.7296 62.8083 36.8177 62.5918 36.8207H59.0506C58.8342 36.8177 58.6276 36.7296 58.4755 36.5754C58.3235 36.4213 58.2383 36.2135 58.2383 35.997C58.2383 35.7805 58.3235 35.5727 58.4755 35.4186C58.6276 35.2644 58.8342 35.1763 59.0506 35.1733H62.5918Z" fill="#E37500"/>
                                  <path d="M4.78418 41.838H8.60083V44.8325H4.78418V41.838ZM75.015 34.9761H78.6991V39.2439H75.015V34.9761Z" fill="#323E66"/>
                                  <path d="M67.1223 54.2206C70.3163 52.6855 71.6611 48.8518 70.126 45.6577C68.5909 42.4637 64.7571 41.1189 61.5631 42.654C58.3691 44.1891 57.0242 48.0229 58.5594 51.2169C60.0945 54.4109 63.9282 55.7557 67.1223 54.2206Z" fill="#323E66"/>
                                  <path d="M65.0779 51.4599C66.7722 51.0581 67.82 49.3589 67.4182 47.6646C67.0165 45.9703 65.3173 44.9225 63.623 45.3243C61.9287 45.7261 60.8809 47.4253 61.2826 49.1196C61.6844 50.8138 63.3836 51.8616 65.0779 51.4599Z" fill="#FDC72E"/>
                                  <path fill-rule="evenodd" clip-rule="evenodd" d="M18.5929 54.8386C22.1269 54.8386 25.0095 51.9562 25.0095 48.422C25.0095 44.8877 22.1269 42.0054 18.5929 42.0054C15.0588 42.0054 12.1763 44.8879 12.1763 48.422C12.1763 51.956 15.0588 54.8386 18.5929 54.8386Z" fill="#323E66"/>
                                  <path fill-rule="evenodd" clip-rule="evenodd" d="M18.5933 51.5753C20.3298 51.5753 21.7462 50.1589 21.7462 48.4224C21.7462 46.6859 20.3298 45.2695 18.5933 45.2695C16.8568 45.2695 15.4404 46.6859 15.4404 48.4224C15.4404 50.1589 16.8568 51.5753 18.5933 51.5753Z" fill="#FDC72E"/>
                                  <path d="M23.2363 25.832H35.794V38.3897H23.2363V25.832Z" fill="#E6B17C"/>
                                  <path fill-rule="evenodd" clip-rule="evenodd" d="M27.6792 25.832H31.3508V29.9171L29.515 28.9959L27.6792 29.9171V25.832Z" fill="#FDC72E"/>
                                  <path d="M23.2363 13.2744H35.794V25.8321H23.2363V13.2744Z" fill="#BA8047"/>
                                  <path fill-rule="evenodd" clip-rule="evenodd" d="M27.6792 13.2744H31.3508V17.3595L29.515 16.4381L27.6792 17.3595V13.2744Z" fill="#2DD62D"/>
                                  <path d="M35.7939 25.832H48.3516V38.3897H35.7939V25.832Z" fill="#DEA368"/>
                                  <path fill-rule="evenodd" clip-rule="evenodd" d="M40.2368 25.832H43.9084V29.9171L42.0726 28.9959L40.2368 29.9171V25.832Z" fill="#FB545C"/>
                                  <path d="M35.7939 9.30811H48.3516V25.8319H35.7939V9.30811Z" fill="#FDD7AD"/>
                                  <path fill-rule="evenodd" clip-rule="evenodd" d="M40.2368 9.30811H43.9084V13.3932L42.0726 12.4719L40.2368 13.3932V9.30811Z" fill="#5CAEFF"/>
                                  <path d="M10.6782 25.832H23.2359V38.3897H10.6782V25.832Z" fill="#FDD7AD"/>
                                  <path fill-rule="evenodd" clip-rule="evenodd" d="M15.1211 25.832H18.7929V29.9171L16.9571 28.9959L15.1211 29.9171V25.832Z" fill="#5CAEFF"/>
                                  <path d="M10.6782 25.832H12.0557V38.3897H10.6782V25.832Z" fill="#F2C496"/>
                                  <path d="M23.2363 25.832H24.6138V38.3897H23.2363V25.832Z" fill="#DEA368"/>
                                  <path d="M35.7939 25.832H37.1714V38.3897H35.7939V25.832Z" fill="#D19458"/>
                                  <path d="M35.7939 9.30811H37.1714V25.8317H35.7939V9.30811Z" fill="#F2C496"/>
                                  <path d="M23.2363 13.2744H24.6138V25.8321H23.2363V13.2744Z" fill="#AB733A"/>
                                </g>
                                <defs>
                                  <filter id="filter0_d_66_359" x="0" y="0" width="85.6221" height="59.8555" filterUnits="userSpaceOnUse" color-interpolation-filters="sRGB">
                                    <feFlood flood-opacity="0" result="BackgroundImageFix"/>
                                    <feColorMatrix in="SourceAlpha" type="matrix" values="0 0 0 0 0 0 0 0 0 0 0 0 0 0 0 0 0 0 127 0" result="hardAlpha"/>
                                    <feOffset dy="1"/>
                                    <feGaussianBlur stdDeviation="2"/>
                                    <feComposite in2="hardAlpha" operator="out"/>
                                    <feColorMatrix type="matrix" values="0 0 0 0 0 0 0 0 0 0 0 0 0 0 0 0 0 0 0.15 0"/>
                                    <feBlend mode="normal" in2="BackgroundImageFix" result="effect1_dropShadow_66_359"/>
                                    <feBlend mode="normal" in="SourceGraphic" in2="effect1_dropShadow_66_359" result="shape"/>
                                  </filter>
                                </defs>
                              </svg>