<svg width="35" height="52" viewBox="0 0 35 52" fill="none" xmlns="http://www.w3.org/2000/svg">
                                        <path d="M31.2959 51.1998H3.68202C1.99795 51.1998 0.620117 49.822 0.620117 48.1379V3.8617C0.620117 2.17763 1.99804 0.799805 3.68202 0.799805H31.2958C32.9799 0.799805 34.3577 2.17763 34.3577 3.8617V48.1379C34.3578 49.822 32.9799 51.1998 31.2959 51.1998Z" fill="#666666"/>
                                        <path d="M19.8848 28.1243H15.0933C14.424 28.1243 13.8764 27.5767 13.8764 26.9074V22.1159C13.8764 21.4465 14.424 20.8989 15.0933 20.8989H19.8848C20.5542 20.8989 21.1018 21.4465 21.1018 22.1159V26.9074C21.1017 27.5766 20.554 28.1243 19.8848 28.1243ZM29.5059 28.1243H24.7143C24.045 28.1243 23.4973 27.5767 23.4973 26.9074V22.1159C23.4973 21.4465 24.045 20.8989 24.7143 20.8989H29.5059C30.1752 20.8989 30.7229 21.4465 30.7229 22.1159V26.9074C30.7229 27.5766 30.1753 28.1243 29.5059 28.1243ZM19.8848 37.8101H15.0933C14.424 37.8101 13.8764 37.2625 13.8764 36.5931V31.8017C13.8764 31.1323 14.424 30.5847 15.0933 30.5847H19.8848C20.5542 30.5847 21.1018 31.1323 21.1018 31.8017V36.5931C21.1017 37.2625 20.554 37.8101 19.8848 37.8101ZM29.5059 37.8101H24.7143C24.045 37.8101 23.4973 37.2625 23.4973 36.5931V31.8017C23.4973 31.1323 24.045 30.5847 24.7143 30.5847H29.5059C30.1752 30.5847 30.7229 31.1323 30.7229 31.8017V36.5931C30.7229 37.2625 30.1753 37.8101 29.5059 37.8101ZM10.2634 47.5103H5.47187C4.80249 47.5103 4.25488 46.9627 4.25488 46.2933V41.5018C4.25488 40.8324 4.80249 40.2848 5.47187 40.2848H10.2634C10.9328 40.2848 11.4804 40.8324 11.4804 41.5018V46.2933C11.4804 46.9627 10.9328 47.5103 10.2634 47.5103ZM19.8848 47.5103H15.0933C14.424 47.5103 13.8764 46.9627 13.8764 46.2933V41.5018C13.8764 40.8324 14.424 40.2848 15.0933 40.2848H19.8848C20.5542 40.2848 21.1018 40.8324 21.1018 41.5018V46.2933C21.1017 46.9627 20.554 47.5103 19.8848 47.5103Z" fill="#F4F4F4"/>
                                        <path d="M29.5061 47.5107H24.7145C24.0452 47.5107 23.4976 46.9631 23.4976 46.2937V41.5021C23.4976 40.8328 24.0452 40.2852 24.7145 40.2852H29.5061C30.1755 40.2852 30.7231 40.8328 30.7231 41.5021V46.2937C30.7231 46.9631 30.1756 47.5107 29.5061 47.5107Z" fill="#F94A46"/>
                                        <path d="M3.13018 48.1379V3.8617C3.13018 2.17763 4.50801 0.799805 6.19207 0.799805H3.68202C1.99804 0.799805 0.620117 2.17763 0.620117 3.8617V48.1379C0.620117 49.822 1.99795 51.1998 3.68202 51.1998H6.19207C4.50801 51.1998 3.13018 49.822 3.13018 48.1379Z" fill="#4F4D4D"/>
                                        <path d="M10.2634 28.1243H5.47187C4.80249 28.1243 4.25488 27.5767 4.25488 26.9074V22.1159C4.25488 21.4465 4.80249 20.8989 5.47187 20.8989H10.2634C10.9328 20.8989 11.4804 21.4465 11.4804 22.1159V26.9074C11.4804 27.5766 10.9328 28.1243 10.2634 28.1243Z" fill="#F4F4F4"/>
                                        <path d="M7.86764 26.9075V22.1159C7.86764 21.4465 8.41525 20.8989 9.08462 20.8989H5.47187C4.80249 20.8989 4.25488 21.4465 4.25488 22.1159V26.9075C4.25488 27.5767 4.80249 28.1244 5.47187 28.1244H9.08462C8.41534 28.1244 7.86764 27.5767 7.86764 26.9075Z" fill="#E6E6E6"/>
                                        <path d="M10.2634 37.8104H5.47187C4.80249 37.8104 4.25488 37.2628 4.25488 36.5934V31.8019C4.25488 31.1326 4.80249 30.585 5.47187 30.585H10.2634C10.9328 30.585 11.4804 31.1326 11.4804 31.8019V36.5934C11.4804 37.2628 10.9328 37.8104 10.2634 37.8104Z" fill="#F4F4F4"/>
                                        <path d="M5.50537 24.5257C5.50537 22.558 7.78587 21.455 9.32868 22.6708C9.65865 22.9309 9.71525 23.4091 9.45518 23.739C9.1951 24.069 8.71689 24.1256 8.38703 23.8656C7.8406 23.4347 7.02662 23.8207 7.02662 24.5258C7.02662 25.2266 7.83755 25.6194 8.38683 25.1863C8.54544 25.0639 8.74594 25.009 8.94477 25.0335C9.14361 25.0581 9.32472 25.1601 9.44878 25.3174C9.57284 25.4748 9.62982 25.6747 9.60736 25.8737C9.58489 26.0728 9.48478 26.255 9.32878 26.3807C7.78784 27.5961 5.50537 26.4957 5.50537 24.5257Z" fill="#CCCCCC"/>
                                        <path d="M29.8821 7.96436H5.09554C4.87258 7.96436 4.65876 8.05292 4.50111 8.21058C4.34345 8.36823 4.25488 8.58206 4.25488 8.80501V16.6512C4.25488 16.8741 4.34345 17.0879 4.50111 17.2456C4.65876 17.4033 4.87258 17.4918 5.09554 17.4918H29.8821C30.1051 17.4918 30.3189 17.4033 30.4765 17.2456C30.6342 17.0879 30.7228 16.8741 30.7228 16.6512V8.80501C30.7228 8.58206 30.6342 8.36823 30.4765 8.21058C30.3189 8.05292 30.1051 7.96436 29.8821 7.96436Z" fill="#70B5E8"/>
                                        <path d="M6.77282 16.6511V8.80501C6.77282 8.58206 6.86138 8.36823 7.01904 8.21058C7.17669 8.05292 7.39052 7.96436 7.61347 7.96436H5.09554C4.87258 7.96436 4.65876 8.05292 4.50111 8.21058C4.34345 8.36823 4.25488 8.58206 4.25488 8.80501V16.6511C4.25488 16.874 4.34345 17.0879 4.50111 17.2455C4.65876 17.4032 4.87258 17.4917 5.09554 17.4917H7.61357C7.50316 17.4917 7.39384 17.47 7.29183 17.4278C7.18983 17.3855 7.09715 17.3236 7.01907 17.2455C6.941 17.1675 6.87907 17.0748 6.83682 16.9728C6.79456 16.8708 6.77282 16.7615 6.77282 16.6511Z" fill="#4AA5D3"/>
                                        <path d="M29.9116 5.20338H23.4974C23.2957 5.20338 23.1022 5.12324 22.9596 4.9806C22.817 4.83795 22.7368 4.64449 22.7368 4.44276C22.7368 4.24102 22.817 4.04756 22.9596 3.90491C23.1022 3.76227 23.2957 3.68213 23.4974 3.68213H29.9116C30.1134 3.68213 30.3068 3.76227 30.4495 3.90491C30.5921 4.04756 30.6723 4.24102 30.6723 4.44276C30.6723 4.64449 30.5921 4.83795 30.4495 4.9806C30.3068 5.12324 30.1134 5.20338 29.9116 5.20338Z" fill="#FFB70D"/>
                                        <path d="M7.86764 36.5932V31.8018C7.86764 31.1325 8.41525 30.5848 9.08462 30.5848H5.47187C4.80249 30.5848 4.25488 31.1324 4.25488 31.8018V36.5933C4.25488 37.2627 4.80249 37.8103 5.47187 37.8103H9.08462C8.41534 37.8102 7.86764 37.2626 7.86764 36.5932ZM7.86764 46.2934V41.5019C7.86764 40.8325 8.41525 40.2849 9.08462 40.2849H5.47187C4.80249 40.2849 4.25488 40.8325 4.25488 41.5019V46.2934C4.25488 46.9628 4.80249 47.5104 5.47187 47.5104H9.08462C8.41534 47.5104 7.86764 46.9628 7.86764 46.2934ZM17.4889 26.9075V22.1159C17.4889 21.4465 18.0365 20.8989 18.7059 20.8989H15.0931C14.4238 20.8989 13.8762 21.4465 13.8762 22.1159V26.9075C13.8762 27.5767 14.4238 28.1244 15.0931 28.1244H18.7059C18.0365 28.1244 17.4889 27.5767 17.4889 26.9075ZM17.4889 36.5932V31.8018C17.4889 31.1325 18.0365 30.5848 18.7059 30.5848H15.0931C14.4238 30.5848 13.8762 31.1324 13.8762 31.8018V36.5933C13.8762 37.2627 14.4238 37.8103 15.0931 37.8103H18.7059C18.0365 37.8102 17.4889 37.2626 17.4889 36.5932ZM17.4889 46.2934V41.5019C17.4889 40.8325 18.0365 40.2849 18.7059 40.2849H15.0931C14.4238 40.2849 13.8762 40.8325 13.8762 41.5019V46.2934C13.8762 46.9628 14.4238 47.5104 15.0931 47.5104H18.7059C18.0365 47.5104 17.4889 46.9628 17.4889 46.2934ZM27.1102 26.9075V22.1159C27.1102 21.4465 27.6578 20.8989 28.3272 20.8989H24.7144C24.0451 20.8989 23.4974 21.4465 23.4974 22.1159V26.9075C23.4974 27.5767 24.0451 28.1244 24.7144 28.1244H28.3272C27.6578 28.1244 27.1102 27.5767 27.1102 26.9075ZM27.1102 36.5932V31.8018C27.1102 31.1325 27.6578 30.5848 28.3272 30.5848H24.7144C24.0451 30.5848 23.4974 31.1324 23.4974 31.8018V36.5933C23.4974 37.2627 24.0451 37.8103 24.7144 37.8103H28.3272C27.6578 37.8102 27.1102 37.2626 27.1102 36.5932Z" fill="#E6E6E6"/>
                                        <path d="M27.1103 46.2937V41.5021C27.1103 40.8328 27.6579 40.2852 28.3273 40.2852H24.7145C24.0452 40.2852 23.4976 40.8328 23.4976 41.5021V46.2937C23.4976 46.9631 24.0452 47.5107 24.7145 47.5107H28.3273C27.6579 47.5107 27.1103 46.9631 27.1103 46.2937Z" fill="#EA3939"/>
                                        <path d="M6.42149 35.6438C6.35086 35.5732 6.29483 35.4893 6.2566 35.397C6.21837 35.3048 6.1987 35.2059 6.1987 35.106C6.1987 35.0061 6.21837 34.9072 6.2566 34.8149C6.29483 34.7226 6.35086 34.6388 6.42149 34.5682L8.23816 32.7514C8.38147 32.6121 8.57384 32.5349 8.77367 32.5363C8.9735 32.5377 9.16475 32.6177 9.30606 32.759C9.44737 32.9003 9.5274 33.0916 9.52885 33.2914C9.53029 33.4912 9.45304 33.6836 9.31378 33.8269L7.49712 35.6437C7.4265 35.7143 7.34266 35.7704 7.25039 35.8086C7.15811 35.8468 7.05921 35.8665 6.95932 35.8665C6.85944 35.8665 6.76054 35.8469 6.66825 35.8087C6.57597 35.7704 6.49212 35.7144 6.42149 35.6438ZM6.07538 33.4802C5.54402 32.9527 6.02823 32.0476 6.76199 32.1973C7.11804 32.2661 7.37348 32.5826 7.37348 32.9428C7.37348 33.1864 7.2526 33.4314 7.03476 33.5745C6.95204 33.6297 6.85941 33.6683 6.76199 33.6881C6.71218 33.6983 6.24686 33.653 6.07538 33.4802ZM8.58436 35.9902C8.51423 35.9194 8.45845 35.8357 8.42007 35.7438C8.34014 35.5508 8.34585 35.3372 8.42007 35.1616C8.5002 34.9717 8.63791 34.832 8.83173 34.7499C8.94716 34.702 9.07262 34.6833 9.197 34.6955C9.32137 34.7077 9.44081 34.7504 9.54472 34.8199C9.71531 34.9324 9.82733 35.1076 9.86818 35.3037C9.88846 35.4017 9.88846 35.5028 9.86818 35.6008C9.84856 35.6986 9.80997 35.7916 9.75459 35.8746C9.64197 36.0452 9.46705 36.1573 9.27086 36.1981C9.22224 36.2083 8.76549 36.1714 8.58436 35.9902ZM7.86764 46.3486C6.58795 46.3486 5.54688 45.2491 5.54688 43.8977C5.54688 42.5463 6.58795 41.4469 7.86764 41.4469C9.14732 41.4469 10.1884 42.5463 10.1884 43.8977C10.1884 45.2491 9.14732 46.3486 7.86764 46.3486ZM7.86764 42.9681C7.42673 42.9681 7.06813 43.3852 7.06813 43.8977C7.06813 44.4103 7.42683 44.8273 7.86764 44.8273C8.30854 44.8273 8.66715 44.4102 8.66715 43.8977C8.66724 43.3852 8.30854 42.9681 7.86764 42.9681ZM18.7735 25.2864H16.2043C16.0026 25.2864 15.8091 25.2063 15.6665 25.0636C15.5238 24.921 15.4437 24.7275 15.4437 24.5258C15.4437 24.324 15.5238 24.1306 15.6665 23.9879C15.8091 23.8453 16.0026 23.7651 16.2043 23.7651H18.7734C18.8733 23.7651 18.9722 23.7848 19.0645 23.823C19.1568 23.8612 19.2407 23.9173 19.3113 23.9879C19.3819 24.0585 19.438 24.1424 19.4762 24.2346C19.5144 24.3269 19.5341 24.4258 19.5341 24.5257C19.5341 24.6256 19.5144 24.7245 19.4762 24.8168C19.438 24.9091 19.382 24.9929 19.3114 25.0636C19.2407 25.1342 19.1569 25.1902 19.0646 25.2285C18.9723 25.2667 18.8734 25.2864 18.7735 25.2864ZM16.0428 35.6438C15.9721 35.5732 15.9161 35.4893 15.8779 35.397C15.8397 35.3048 15.82 35.2059 15.82 35.106C15.82 35.0061 15.8397 34.9072 15.8779 34.8149C15.9161 34.7226 15.9721 34.6388 16.0428 34.5682L17.8594 32.7514C18.0028 32.6121 18.1951 32.5349 18.395 32.5363C18.5948 32.5377 18.786 32.6177 18.9273 32.759C19.0687 32.9003 19.1487 33.0916 19.1501 33.2914C19.1516 33.4912 19.0743 33.6836 18.9351 33.8269L17.1184 35.6437C17.0478 35.7143 16.9639 35.7704 16.8717 35.8086C16.7794 35.8468 16.6805 35.8665 16.5806 35.8665C16.4807 35.8665 16.3818 35.8469 16.2895 35.8087C16.1973 35.7704 16.1134 35.7144 16.0428 35.6438Z" fill="#CCCCCC"/>
                                        <path d="M17.8597 35.6438L16.043 33.8271C15.9004 33.6844 15.8203 33.491 15.8203 33.2893C15.8203 33.0876 15.9005 32.8941 16.0431 32.7515C16.1857 32.6089 16.3792 32.5288 16.5809 32.5288C16.7826 32.5288 16.976 32.6089 17.1187 32.7516L18.9353 34.5683C19.078 34.711 19.1581 34.9044 19.1581 35.1061C19.1581 35.3078 19.0779 35.5013 18.9353 35.6439C18.7927 35.7865 18.5992 35.8666 18.3975 35.8666C18.1958 35.8666 18.0023 35.7865 17.8597 35.6438ZM16.787 43.6066C17.0513 42.9813 17.9289 42.9856 18.1916 43.6066C18.3793 44.0501 18.0982 44.5569 17.6379 44.6431C17.0399 44.7648 16.5531 44.1596 16.787 43.6066ZM17.0669 23.3836C16.8955 23.2705 16.784 23.0944 16.7434 22.8997C16.7023 22.7026 16.7463 22.497 16.857 22.3288C16.964 22.1663 17.1349 22.0483 17.3407 22.0052C17.8144 21.9127 18.2494 22.2748 18.2494 22.7517C18.2494 23.104 18.0065 23.4206 17.6378 23.497C17.5892 23.5062 17.2311 23.4913 17.0669 23.3836ZM16.787 26.5912C16.7484 26.4992 16.7284 26.4004 16.7284 26.3006C16.7284 26.2008 16.7484 26.1021 16.787 26.0101C16.8618 25.829 17.001 25.6812 17.1977 25.5984C17.4256 25.5041 17.6895 25.5223 17.9117 25.6683C18.0777 25.7777 18.1933 25.9509 18.2352 26.1521C18.373 26.8869 17.1348 27.4336 16.787 26.5912ZM28.3505 43.5385H25.7813C25.5795 43.5385 25.3861 43.4584 25.2434 43.3158C25.1008 43.1731 25.0206 42.9796 25.0206 42.7779C25.0206 42.5762 25.1008 42.3827 25.2434 42.2401C25.3861 42.0974 25.5795 42.0173 25.7813 42.0173H28.3505C28.5522 42.0173 28.7457 42.0974 28.8883 42.2401C29.031 42.3827 29.1111 42.5762 29.1111 42.7779C29.1111 42.9796 29.031 43.1731 28.8883 43.3158C28.7457 43.4584 28.5522 43.5385 28.3505 43.5385ZM28.3505 25.2725H25.7813C25.5795 25.2725 25.3861 25.1923 25.2434 25.0497C25.1008 24.907 25.0206 24.7136 25.0206 24.5118C25.0206 24.3101 25.1008 24.1166 25.2434 23.974C25.3861 23.8314 25.5795 23.7512 25.7813 23.7512H28.3505C28.5522 23.7512 28.7457 23.8314 28.8883 23.974C29.031 24.1166 29.1111 24.3101 29.1111 24.5118C29.1111 24.7136 29.031 24.907 28.8883 25.0497C28.7457 25.1923 28.5522 25.2725 28.3505 25.2725ZM28.3505 34.9583H25.7813C25.5795 34.9583 25.3861 34.8782 25.2434 34.7355C25.1008 34.5929 25.0206 34.3994 25.0206 34.1977C25.0206 33.996 25.1008 33.8025 25.2434 33.6599C25.3861 33.5172 25.5795 33.4371 25.7813 33.4371H28.3505C28.5522 33.4371 28.7457 33.5172 28.8883 33.6599C29.031 33.8025 29.1111 33.996 29.1111 34.1977C29.1111 34.3994 29.031 34.5929 28.8883 34.7355C28.7457 34.8782 28.5522 34.9583 28.3505 34.9583Z" fill="#CCCCCC"/>
                                        <path d="M27.0657 36.2427C26.864 36.2427 26.6705 36.1626 26.5279 36.0199C26.3853 35.8773 26.3051 35.6838 26.3051 35.4821V32.913C26.3051 32.7112 26.3853 32.5178 26.5279 32.3751C26.6705 32.2325 26.864 32.1523 27.0657 32.1523C27.2675 32.1523 27.4609 32.2325 27.6036 32.3751C27.7462 32.5178 27.8264 32.7112 27.8264 32.913V35.4821C27.8264 35.6838 27.7462 35.8773 27.6036 36.0199C27.4609 36.1626 27.2675 36.2427 27.0657 36.2427ZM28.3504 45.7019H25.7811C25.5794 45.7019 25.3859 45.6217 25.2433 45.4791C25.1006 45.3364 25.0205 45.143 25.0205 44.9412C25.0205 44.7395 25.1006 44.546 25.2433 44.4034C25.3859 44.2608 25.5794 44.1806 25.7811 44.1806H28.3504C28.5521 44.1806 28.7456 44.2608 28.8882 44.4034C29.0308 44.546 29.111 44.7395 29.111 44.9412C29.111 45.143 29.0308 45.3364 28.8882 45.4791C28.7456 45.6217 28.5521 45.7019 28.3504 45.7019Z" fill="#CCCCCC"/>
                                    </svg>