<svg width="54" height="62" viewBox="0 0 54 62" fill="none" xmlns="http://www.w3.org/2000/svg">
                                <g filter="url(#filter0_d_66_311)">
                                  <path d="M49.5625 52.625V5.375C49.5625 3.51116 48.0513 2 46.1875 2H7.375C5.51116 2 4 3.51116 4 5.375V52.625C4 54.4888 5.51116 56 7.375 56H46.1875C48.0513 56 49.5625 54.4888 49.5625 52.625Z" fill="#35495C"/>
                                  <path d="M35.2188 39.9688H45.3438C45.8095 39.9688 46.1875 40.3468 46.1875 40.8125V50.9375C46.1875 51.4032 45.8095 51.7812 45.3438 51.7812H35.2188C34.753 51.7812 34.375 51.4032 34.375 50.9375V40.8125C34.375 40.3468 34.753 39.9688 35.2188 39.9688Z" fill="#B0C4D9"/>
                                  <path d="M8.21875 6.21875H45.3438C45.8095 6.21875 46.1875 6.59675 46.1875 7.0625V22.25C46.1875 22.7157 45.8095 23.0938 45.3438 23.0938H8.21875C7.753 23.0938 7.375 22.7157 7.375 22.25V7.0625C7.375 6.59675 7.753 6.21875 8.21875 6.21875Z" fill="#89C763"/>
                                  <path d="M8.21875 39.9688H18.3438C18.8095 39.9688 19.1875 40.3468 19.1875 40.8125V50.9375C19.1875 51.4032 18.8095 51.7812 18.3438 51.7812H8.21875C7.753 51.7812 7.375 51.4032 7.375 50.9375V40.8125C7.375 40.3468 7.753 39.9688 8.21875 39.9688ZM21.7188 39.9688H31.8438C32.3095 39.9688 32.6875 40.3468 32.6875 40.8125V50.9375C32.6875 51.4032 32.3095 51.7812 31.8438 51.7812H21.7188C21.253 51.7812 20.875 51.4032 20.875 50.9375V40.8125C20.875 40.3468 21.253 39.9688 21.7188 39.9688Z" fill="#576D7E"/>
                                  <path d="M35.2188 26.4688H45.3438C45.8095 26.4688 46.1875 26.8468 46.1875 27.3125V37.4375C46.1875 37.9032 45.8095 38.2812 45.3438 38.2812H35.2188C34.753 38.2812 34.375 37.9032 34.375 37.4375V27.3125C34.375 26.8468 34.753 26.4688 35.2188 26.4688Z" fill="#DE333F"/>
                                  <path d="M8.21875 26.4688H18.3438C18.8095 26.4688 19.1875 26.8468 19.1875 27.3125V37.4375C19.1875 37.9032 18.8095 38.2812 18.3438 38.2812H8.21875C7.753 38.2812 7.375 37.9032 7.375 37.4375V27.3125C7.375 26.8468 7.753 26.4688 8.21875 26.4688ZM21.7188 26.4688H31.8438C32.3095 26.4688 32.6875 26.8468 32.6875 27.3125V37.4375C32.6875 37.9032 32.3095 38.2812 31.8438 38.2812H21.7188C21.253 38.2812 20.875 37.9032 20.875 37.4375V27.3125C20.875 26.8468 21.253 26.4688 21.7188 26.4688Z" fill="#576D7E"/>
                                  <path d="M15.8125 31.5312H14.125V29.8438C14.125 29.378 13.747 29 13.2812 29C12.8155 29 12.4375 29.378 12.4375 29.8438V31.5312H10.75C10.2843 31.5312 9.90625 31.9093 9.90625 32.375C9.90625 32.8407 10.2843 33.2188 10.75 33.2188H12.4375V34.9062C12.4375 35.372 12.8155 35.75 13.2812 35.75C13.747 35.75 14.125 35.372 14.125 34.9062V33.2188H15.8125C16.2783 33.2188 16.6562 32.8407 16.6562 32.375C16.6562 31.9093 16.2783 31.5312 15.8125 31.5312ZM29.3125 33.2188H24.25C23.7843 33.2188 23.4062 32.8407 23.4062 32.375C23.4062 31.9093 23.7843 31.5312 24.25 31.5312H29.3125C29.7782 31.5312 30.1562 31.9093 30.1562 32.375C30.1562 32.8407 29.7782 33.2188 29.3125 33.2188Z" fill="#E2E5E7"/>
                                  <path d="M37.75 45.0312H42.8125C43.2783 45.0312 43.6562 44.6532 43.6562 44.1875C43.6562 43.7218 43.2783 43.3438 42.8125 43.3438H37.75C37.2843 43.3438 36.9062 43.7218 36.9062 44.1875C36.9062 44.6532 37.2843 45.0312 37.75 45.0312ZM42.8125 46.7188H37.75C37.2843 46.7188 36.9062 47.0968 36.9062 47.5625C36.9062 48.0283 37.2843 48.4062 37.75 48.4062H42.8125C43.2783 48.4062 43.6562 48.0283 43.6562 47.5625C43.6562 47.0968 43.2783 46.7188 42.8125 46.7188Z" fill="#35495C"/>
                                  <path d="M29.3125 45.0312H24.25C23.7843 45.0312 23.4062 45.4093 23.4062 45.875C23.4062 46.3407 23.7843 46.7188 24.25 46.7188H29.3125C29.7783 46.7188 30.1562 46.3407 30.1562 45.875C30.1562 45.4093 29.7783 45.0312 29.3125 45.0312Z" fill="#E2E5E7"/>
                                  <path d="M26.7812 44.1875C27.2472 44.1875 27.625 43.8097 27.625 43.3438C27.625 42.8778 27.2472 42.5 26.7812 42.5C26.3153 42.5 25.9375 42.8778 25.9375 43.3438C25.9375 43.8097 26.3153 44.1875 26.7812 44.1875Z" fill="#E2E5E7"/>
                                  <path d="M26.7812 49.25C27.2472 49.25 27.625 48.8722 27.625 48.4062C27.625 47.9403 27.2472 47.5625 26.7812 47.5625C26.3153 47.5625 25.9375 47.9403 25.9375 48.4062C25.9375 48.8722 26.3153 49.25 26.7812 49.25Z" fill="#E2E5E7"/>
                                  <path d="M40.3656 36.594C39.2308 36.5975 38.1399 36.1551 37.3281 35.3621C35.6786 33.7564 35.6431 31.118 37.2488 29.4676C37.275 29.4406 37.302 29.4145 37.3281 29.3883C39.0232 27.7456 41.7165 27.7456 43.4116 29.3883C43.5688 29.5464 43.6571 29.7602 43.6571 29.9832C43.6571 30.2061 43.5688 30.42 43.4116 30.578C43.0884 30.9138 42.5543 30.9231 42.2185 30.6C42.2109 30.5924 42.2033 30.5856 42.1966 30.578C41.1807 29.5866 39.559 29.5866 38.5431 30.578C37.5526 31.5652 37.55 33.1675 38.5372 34.1581L38.5431 34.164C39.559 35.1554 41.1807 35.1554 42.1966 34.164C42.5197 33.8281 43.0538 33.8189 43.3896 34.142C43.3972 34.1496 43.4048 34.1564 43.4116 34.164C43.7423 34.4922 43.7448 35.0263 43.4166 35.357L43.4116 35.3621C42.5976 36.157 41.5034 36.5995 40.3656 36.594Z" fill="#E2E5E7"/>
                                  <path d="M45.3438 6.21875H8.21875C7.753 6.21875 7.375 6.59675 7.375 7.0625V8.75C7.375 8.28425 7.753 7.90625 8.21875 7.90625H45.3438C45.8095 7.90625 46.1875 8.28425 46.1875 8.75V7.0625C46.1875 6.59675 45.8095 6.21875 45.3438 6.21875Z" fill="#3CB54A"/>
                                  <path d="M40.2812 20.5625H38.5938C37.1957 20.5625 36.0625 19.4293 36.0625 18.0312V12.9688C36.0625 11.5707 37.1957 10.4375 38.5938 10.4375H40.2812C41.6793 10.4375 42.8125 11.5707 42.8125 12.9688V18.0312C42.8125 19.4293 41.6793 20.5625 40.2812 20.5625ZM38.5938 12.125C38.128 12.125 37.75 12.503 37.75 12.9688V18.0312C37.75 18.497 38.128 18.875 38.5938 18.875H40.2812C40.747 18.875 41.125 18.497 41.125 18.0312V12.9688C41.125 12.503 40.747 12.125 40.2812 12.125H38.5938Z" fill="#0E9347"/>
                                  <path d="M14.471 45.8748L15.5594 44.7864C15.8623 44.4328 15.821 43.8996 15.4675 43.5967C15.3146 43.4656 15.1199 43.3936 14.9186 43.3936C14.7173 43.3936 14.5226 43.4656 14.3697 43.5967L13.2813 44.6851L12.1929 43.5967C11.8393 43.2938 11.3061 43.3351 11.0032 43.6886C10.8721 43.8415 10.8001 44.0362 10.8001 44.2375C10.8001 44.4388 10.8721 44.6335 11.0032 44.7864L12.0916 45.8748L11.0032 46.9632C10.6496 47.2661 10.6083 47.7994 10.9112 48.1529C11.2141 48.5065 11.7474 48.5478 12.1009 48.2449C12.1338 48.2162 12.165 48.1858 12.1929 48.1529L13.2813 47.0645L14.3697 48.1529C14.7233 48.4558 15.2565 48.4145 15.5594 48.061C15.6905 47.9081 15.7625 47.7134 15.7625 47.5121C15.7625 47.3108 15.6905 47.1161 15.5594 46.9632L14.471 45.8748Z" fill="#E2E5E7"/>
                                  <path d="M47.875 7.0625V52.625C47.875 53.5573 47.1198 54.3125 46.1875 54.3125H9.0625C8.13016 54.3125 7.375 55.0677 7.375 56H46.1875C48.0513 56 49.5625 54.4888 49.5625 52.625V5.375C48.6302 5.375 47.875 6.13016 47.875 7.0625Z" fill="#123247"/>
                                  <path d="M44.5 42.5V50.0938H36.9062C35.9739 50.0938 35.2188 50.8489 35.2188 51.7812H45.3438C45.8095 51.7812 46.1875 51.4032 46.1875 50.9375V40.8125C45.2552 40.8125 44.5 41.5677 44.5 42.5Z" fill="#99B5CD"/>
                                  <path d="M44.5 29V36.5938H36.9062C35.9739 36.5938 35.2188 37.3489 35.2188 38.2812H45.3438C45.8095 38.2812 46.1875 37.9032 46.1875 37.4375V27.3125C45.2552 27.3125 44.5 28.0677 44.5 29Z" fill="#C61C31"/>
                                  <path d="M31 29V36.5938H23.4062C22.4739 36.5938 21.7188 37.3489 21.7188 38.2812H31.8438C32.3095 38.2812 32.6875 37.9032 32.6875 37.4375V27.3125C31.7552 27.3125 31 28.0677 31 29ZM31 42.5V50.0938H23.4062C22.4739 50.0938 21.7188 50.8489 21.7188 51.7812H31.8438C32.3095 51.7812 32.6875 51.4032 32.6875 50.9375V40.8125C31.7552 40.8125 31 41.5677 31 42.5ZM17.5 29V36.5938H9.90625C8.97391 36.5938 8.21875 37.3489 8.21875 38.2812H18.3438C18.8095 38.2812 19.1875 37.9032 19.1875 37.4375V27.3125C18.2552 27.3125 17.5 28.0677 17.5 29ZM17.5 42.5V50.0938H9.90625C8.97391 50.0938 8.21875 50.8489 8.21875 51.7812H18.3438C18.8095 51.7812 19.1875 51.4032 19.1875 50.9375V40.8125C18.2552 40.8125 17.5 41.5677 17.5 42.5Z" fill="#3F556B"/>
                                  <path d="M7.375 2H46.1875C46.1875 2.93234 45.4323 3.6875 44.5 3.6875H9.0625C8.13016 3.6875 7.375 2.93234 7.375 2Z" fill="#435970"/>
                                </g>
                                <defs>
                                  <filter id="filter0_d_66_311" x="0" y="0" width="53.5625" height="62" filterUnits="userSpaceOnUse" color-interpolation-filters="sRGB">
                                    <feFlood flood-opacity="0" result="BackgroundImageFix"/>
                                    <feColorMatrix in="SourceAlpha" type="matrix" values="0 0 0 0 0 0 0 0 0 0 0 0 0 0 0 0 0 0 127 0" result="hardAlpha"/>
                                    <feOffset dy="2"/>
                                    <feGaussianBlur stdDeviation="2"/>
                                    <feComposite in2="hardAlpha" operator="out"/>
                                    <feColorMatrix type="matrix" values="0 0 0 0 0 0 0 0 0 0 0 0 0 0 0 0 0 0 0.25 0"/>
                                    <feBlend mode="normal" in2="BackgroundImageFix" result="effect1_dropShadow_66_311"/>
                                    <feBlend mode="normal" in="SourceGraphic" in2="effect1_dropShadow_66_311" result="shape"/>
                                  </filter>
                                </defs>
                              </svg>