<svg width="82" height="50" viewBox="0 0 82 50" fill="none" xmlns="http://www.w3.org/2000/svg">
                                        <path d="M2.22266 0.200195H56.6746V41.8054H2.22266V0.200195Z" fill="#FFC53D"/>
                                        <path d="M56.6748 16.4399H75.61V31.3944H56.6748V16.4399Z" fill="#F23030"/>
                                        <path d="M34.8056 0.200195V18.3561C34.8056 18.8502 34.1845 19.069 33.8739 18.6862C33.8248 18.6258 33.763 18.5771 33.6928 18.5437C33.6226 18.5102 33.5458 18.4927 33.4681 18.4925C33.3903 18.4923 33.3135 18.5094 33.2431 18.5426C33.1728 18.5757 33.1107 18.6241 33.0613 18.6842L32.53 19.3347C32.4808 19.395 32.4187 19.4435 32.3484 19.4768C32.278 19.5101 32.2011 19.5273 32.1233 19.5271C32.0454 19.5269 31.9686 19.5093 31.8984 19.4757C31.8282 19.4421 31.7664 19.3932 31.7175 19.3327L31.194 18.6862C30.985 18.4283 30.5904 18.4283 30.3795 18.6862L29.856 19.3308C29.647 19.5886 29.2524 19.5886 29.0414 19.3308L28.518 18.6862C28.309 18.4283 27.9144 18.4283 27.7034 18.6862L27.18 19.3327C27.1309 19.3931 27.069 19.4417 26.9988 19.4752C26.9287 19.5087 26.8519 19.5262 26.7741 19.5264C26.6964 19.5266 26.6195 19.5095 26.5492 19.4763C26.4788 19.4432 26.4167 19.3948 26.3674 19.3347L25.8361 18.6842C25.7869 18.6239 25.7248 18.5754 25.6544 18.5421C25.5841 18.5088 25.5072 18.4916 25.4293 18.4918C25.3515 18.492 25.2747 18.5095 25.2045 18.5432C25.1343 18.5768 25.0725 18.6256 25.0235 18.6862C24.7129 19.069 24.0918 18.8502 24.0918 18.3561V0.200195H34.8056Z" fill="#EDF0FF"/>
                                        <path d="M75.9987 17.0158H56.6748V15.0918H75.9987C76.4636 15.0918 76.868 15.3906 76.9832 15.8165C77.1453 16.4239 76.6609 17.0158 75.9987 17.0158Z" fill="#FFC53D"/>
                                        <path d="M79.0772 29.2926H61.7417V17.0161H75.9812L79.0772 29.2926Z" fill="#3DECFF"/>
                                        <path d="M75.9987 17.0162H56.6748V10.8047L75.9987 15.0922C76.4636 15.0922 76.868 15.391 76.9832 15.8168C77.1453 16.4243 76.6609 17.0162 75.9987 17.0162ZM80.6124 30.6365V43.497H56.6748V29.2946H79.1943C79.9776 29.2926 80.6124 29.8942 80.6124 30.6365Z" fill="#F23030"/>
                                        <path d="M77.0146 35.2698V33.4083C77.0146 32.9824 77.3604 32.6367 77.7862 32.6367H80.6126V36.0433H77.7862C77.3604 36.0433 77.0146 35.6975 77.0146 35.2698Z" fill="#EDF0FF"/>
                                        <path d="M77.0147 35.4808V33.1994C77.0147 33.0502 77.0739 32.9071 77.1794 32.8016C77.2849 32.6961 77.428 32.6368 77.5772 32.6368H78.3273V36.0434H77.5772C77.428 36.0434 77.2849 35.9841 77.1794 35.8786C77.0739 35.7731 77.0147 35.63 77.0147 35.4808ZM71.9068 31.3926H74.2625C74.6062 31.3926 74.8836 31.6699 74.8836 32.0137C74.8836 32.3575 74.6062 32.6349 74.2625 32.6349H71.9068C71.563 32.6349 71.2856 32.3575 71.2856 32.0137C71.2856 31.6719 71.563 31.3926 71.9068 31.3926Z" fill="#FF6A38"/>
                                        <path d="M81.6438 43.6979V41.8052H1.76577C0.834049 41.8052 0.0800781 42.5611 0.0800781 43.4909C0.0800781 44.4226 0.836002 45.1766 1.76577 45.1766H80.1612C80.9797 45.1785 81.6438 44.5163 81.6438 43.6979Z" fill="#EDF0FF"/>
                                        <path d="M79.8722 40.563H79.9679C80.925 40.563 81.7005 41.3384 81.7005 42.2956V43.4461C81.7005 44.4032 80.925 45.1786 79.9679 45.1786H79.8722C78.9151 45.1786 78.1396 44.4032 78.1396 43.4461V42.2956C78.1396 41.3404 78.9151 40.563 79.8722 40.563Z" fill="#EDF0FF"/>
                                        <path d="M19.191 49.8004C22.8696 49.8004 25.8517 46.9766 25.8517 43.4932C25.8517 40.0099 22.8696 37.186 19.191 37.186C15.5124 37.186 12.5303 40.0099 12.5303 43.4932C12.5303 46.9766 15.5124 49.8004 19.191 49.8004Z" fill="#00043D"/>
                                        <path d="M19.1912 46.9581C21.2118 46.9581 22.8498 45.4067 22.8498 43.493C22.8498 41.5792 21.2118 40.0278 19.1912 40.0278C17.1707 40.0278 15.5327 41.5792 15.5327 43.493C15.5327 45.4067 17.1707 46.9581 19.1912 46.9581Z" fill="#EDF0FF"/>
                                        <path d="M64.8082 49.8004C68.4868 49.8004 71.4689 46.9766 71.4689 43.4932C71.4689 40.0099 68.4868 37.186 64.8082 37.186C61.1296 37.186 58.1475 40.0099 58.1475 43.4932C58.1475 46.9766 61.1296 49.8004 64.8082 49.8004Z" fill="#00043D"/>
                                        <path d="M64.8084 46.9581C66.829 46.9581 68.4669 45.4067 68.4669 43.493C68.4669 41.5792 66.829 40.0278 64.8084 40.0278C62.7879 40.0278 61.1499 41.5792 61.1499 43.493C61.1499 45.4067 62.7879 46.9581 64.8084 46.9581Z" fill="#EDF0FF"/>
                                        <path d="M41.2358 34.6174V28.1676C41.2358 27.5171 41.7632 26.9897 42.4137 26.9897H51.5063C52.1567 26.9897 52.6841 27.5171 52.6841 28.1676V34.6174C52.6841 35.2678 52.1567 35.7952 51.5063 35.7952H42.4137C42.1013 35.7952 41.8017 35.6711 41.5808 35.4502C41.3599 35.2293 41.2358 34.9297 41.2358 34.6174Z" fill="#00043D"/>
                                    </svg>