<svg width="52" height="52" viewBox="0 0 52 52" fill="none" xmlns="http://www.w3.org/2000/svg">
                                        <path d="M45.6988 51.1994H6.33372C5.3024 51.1994 4.4668 50.3637 4.4668 49.3325V19.231H47.5661V49.3325C47.5661 50.3637 46.7299 51.1994 45.6988 51.1994Z" fill="#FFC73B"/>
                                        <path d="M4.4668 19.231H47.5661V25.4948H4.4668V19.231Z" fill="#EFB025"/>
                                        <path d="M51.2334 12.7009V20.4611C51.2334 21.29 50.5608 21.9613 49.732 21.9613H2.30001C1.4712 21.9613 0.799805 21.29 0.799805 20.4611V12.701C0.799805 11.8721 1.4712 11.2007 2.30001 11.2007H49.732C50.5608 11.2007 51.2334 11.8721 51.2334 12.7009Z" fill="#FFC73B"/>
                                        <path d="M24.3022 14.7681C23.9749 15.149 23.6541 15.5354 23.3398 15.927C22.1751 17.3767 21.1045 18.8995 20.1346 20.4862C19.8376 20.9723 19.5498 21.464 19.2715 21.9611H9.04297C9.64081 20.6048 10.2957 19.2743 11.0057 17.9733C12.2966 15.6066 13.7669 13.3424 15.4038 11.2004C15.7961 10.6869 16.1977 10.1805 16.6085 9.6817C16.8548 9.38077 17.1052 9.08408 17.3592 8.78857L20.1592 11.2004C20.3039 11.3243 20.4486 11.4497 20.5929 11.574C21.6949 12.5229 22.7969 13.4713 23.8985 14.4214C24.0336 14.536 24.1674 14.6527 24.3022 14.7681ZM39.5635 21.9611H29.3343C29.0564 21.4638 28.7687 20.972 28.4712 20.4862C27.5009 18.8998 26.4303 17.377 25.2659 15.927C24.9509 15.5355 24.6296 15.1491 24.3022 14.768C24.4371 14.6527 24.5711 14.5368 24.7061 14.4214C25.809 13.4713 26.9109 12.5217 28.0126 11.574C28.1572 11.4497 28.3019 11.3243 28.4466 11.2004C29.3801 10.3962 30.3139 9.59285 31.2466 8.78857C31.5004 9.083 31.7506 9.38047 31.9972 9.68091C32.4085 10.1797 32.8101 10.6863 33.202 11.2004C34.8389 13.3426 36.3095 15.6068 37.6009 17.9733C38.3109 19.2743 38.9657 20.6048 39.5635 21.9611Z" fill="#EFB025"/>
                                        <path d="M26.0158 14.7689C25.6882 15.1495 25.3673 15.5358 25.0531 15.9275C23.8884 17.3774 22.8178 18.9004 21.8478 20.4872C18.7659 25.5249 16.7356 31.1343 15.8792 36.9776C14.5868 35.2633 13.394 33.4087 12.3208 31.4256C10.4331 32.6568 8.58803 34.0651 6.81152 35.6497C7.71975 29.4546 9.72006 23.4698 12.7194 17.9737C14.3202 15.0387 16.1961 12.2624 18.3218 9.68219C18.5685 9.38156 18.8187 9.08383 19.0724 8.78906C20.1506 9.71755 21.228 10.646 22.3065 11.5745C23.4082 12.5233 24.5102 13.4718 25.6122 14.4219C25.7469 14.5365 25.8807 14.6531 26.0158 14.7689ZM45.2207 35.6496C43.4443 34.0651 41.5993 32.6568 39.7115 31.4256C38.6384 33.4087 37.4456 35.2632 36.1531 36.9775C35.2969 31.1342 33.2666 25.5247 30.1844 20.4871C29.2143 18.9005 28.1437 17.3775 26.9792 15.9275C26.6643 15.5361 26.3432 15.1499 26.0159 14.7689C26.1504 14.6531 26.2844 14.5373 26.4194 14.4219C27.5222 13.4718 28.6242 12.5222 29.7262 11.5745C30.8043 10.6449 31.8829 9.71755 32.9598 8.78906C33.2136 9.08349 33.4639 9.38095 33.7105 9.6814C35.8367 12.2619 37.713 15.0384 39.3141 17.9737C42.3127 23.47 44.3126 29.4547 45.2208 35.6497L45.2207 35.6496Z" fill="#FF4440"/>
                                        <path d="M22.001 14.7686H30.0317V21.9609H22.001V14.7686Z" fill="#FF4440"/>
                                        <path d="M39.3139 17.974L30.1844 20.4874C29.2142 18.9008 28.1436 17.3778 26.9791 15.9278L26.4193 14.4222L26.0156 13.3363L29.726 11.5749L33.7105 9.68164C35.8366 12.2621 37.7128 15.0387 39.3139 17.974Z" fill="#EA2F2F"/>
                                        <path d="M26.0156 13.3364L25.612 14.4223L25.0529 15.9279C23.8882 17.3778 22.8175 18.9008 21.8476 20.4876L12.7192 17.9741C14.32 15.0392 16.1959 12.2629 18.3216 9.68262L22.3063 11.5749L26.0156 13.3364Z" fill="#EA2F2F"/>
                                        <path d="M40.5865 1.14825L26.0162 8.06769L28.815 15.5951L44.367 11.3145C46.4009 10.7546 47.5183 8.57173 46.783 6.59438L45.4995 3.14294C44.7645 1.16559 42.4924 0.243203 40.5865 1.14825ZM11.4458 1.14825L26.0162 8.06769L23.2173 15.5951L7.66574 11.3145C5.63185 10.7546 4.51443 8.57173 5.24976 6.59438L6.53296 3.14294C7.26828 1.16559 9.53996 0.243203 11.4458 1.14825Z" fill="#FF4440"/>
                                        <path d="M29.4955 11.0927C29.3605 11.0929 29.2277 11.0591 29.1093 10.9943C28.9909 10.9295 28.8908 10.8359 28.8182 10.7221C28.7614 10.6333 28.7226 10.5342 28.7041 10.4304C28.6856 10.3266 28.6877 10.2202 28.7103 10.1172C28.7329 10.0142 28.7756 9.91669 28.8359 9.83021C28.8963 9.74373 28.973 9.66998 29.0618 9.61318C29.1723 9.54284 31.7965 7.87282 34.8093 6.65424C39.1526 4.89734 42.0531 4.99161 43.4291 6.93439C43.4901 7.02045 43.5336 7.11769 43.557 7.22055C43.5804 7.32342 43.5833 7.42989 43.5655 7.53387C43.5478 7.63786 43.5097 7.73733 43.4534 7.82659C43.3972 7.91584 43.3239 7.99315 43.2378 8.05407C43.1518 8.11503 43.0546 8.15843 42.9517 8.18181C42.8489 8.20519 42.7425 8.20809 42.6386 8.19034C42.5346 8.17258 42.4352 8.13452 42.346 8.07834C42.2567 8.02215 42.1795 7.94894 42.1185 7.86288C40.2531 5.2295 32.4971 9.32427 29.9272 10.9665C29.7983 11.049 29.6485 11.0928 29.4955 11.0927ZM22.4579 11.0927C22.3049 11.0928 22.1551 11.049 22.0262 10.9665C19.4562 9.32427 11.7003 5.2295 9.83494 7.86278C9.7118 8.03662 9.52464 8.15442 9.31464 8.19028C9.10465 8.22613 8.88901 8.1771 8.71516 8.05397C8.54139 7.93079 8.42366 7.74362 8.38788 7.53364C8.3521 7.32366 8.40119 7.10807 8.52436 6.93429C9.90035 4.99161 12.8004 4.89724 17.1442 6.65414C20.157 7.87243 22.7811 9.54275 22.8915 9.61318C23.0709 9.72791 23.1973 9.90916 23.2431 10.1171C23.2888 10.325 23.2501 10.5426 23.1355 10.722C23.0628 10.8357 22.9626 10.9293 22.8442 10.9941C22.7257 11.0589 22.5929 11.0928 22.4579 11.0927Z" fill="#EA2F2F"/>
                                        <path d="M28.3008 5.48047H23.7313C22.4807 5.48047 21.4668 6.49436 21.4668 7.74535V14.3839C21.4668 15.6349 22.4807 16.6486 23.7313 16.6486H28.3008C29.5514 16.6486 30.5653 15.6348 30.5653 14.3839V7.74535C30.5653 6.49436 29.5514 5.48047 28.3008 5.48047Z" fill="#EA2F2F"/>
                                        <path d="M22.001 21.9614H30.0317V51.1995H22.001V21.9614Z" fill="#FF4440"/>
                                        <path d="M22.001 21.9614H30.0317V25.4948H22.001V21.9614Z" fill="#EA2F2F"/>
                                    </svg>